 <svg viewBox="0 0 1440 1024" fill="none" xmlns="http://www.w3.org/2000/svg">
           
          <line y1="62.5" x2="1545" y2="62.5" stroke="#ACD2FF" />
          <line y1="123.5" x2="1545" y2="123.5" stroke="#ACD2FF" />
          <line y1="184.5" x2="1545" y2="184.5" stroke="#ACD2FF" />
          <line y1="245.5" x2="1545" y2="245.5" stroke="#ACD2FF" />
          <line y1="306.5" x2="1545" y2="306.5" stroke="#ACD2FF" />
          <line y1="367.5" x2="1545" y2="367.5" stroke="#ACD2FF" />
          <line y1="428.5" x2="1545" y2="428.5" stroke="#ACD2FF" />
          <line y1="489.5" x2="1545" y2="489.5" stroke="#ACD2FF" />
          <line y1="550.5" x2="1545" y2="550.5" stroke="#ACD2FF" />
          <line y1="611.5" x2="1545" y2="611.5" stroke="#ACD2FF" />
          <line y1="672.5" x2="1545" y2="672.5" stroke="#ACD2FF" />
          <line y1="733.5" x2="1545" y2="733.5" stroke="#ACD2FF" />
          <line y1="794.5" x2="1545" y2="794.5" stroke="#ACD2FF" />
          <line y1="855.5" x2="1545" y2="855.5" stroke="#ACD2FF" />
          <line y1="916.5" x2="1545" y2="916.5" stroke="#ACD2FF" />
          <line y1="977.5" x2="1545" y2="977.5" stroke="#ACD2FF" />
          <line x1="45.5" y1="1287" x2="45.5" y2="-185" stroke="#ACD2FF" />
          <line x1="109.5" y1="1287" x2="109.5" y2="-185" stroke="#ACD2FF" />
          <line x1="173.5" y1="1287" x2="173.5" y2="-185" stroke="#ACD2FF" />
          <line x1="237.5" y1="1287" x2="237.5" y2="-185" stroke="#ACD2FF" />
          <line x1="301.5" y1="1287" x2="301.5" y2="-185" stroke="#ACD2FF" />
          <line x1="365.5" y1="1287" x2="365.5" y2="-185" stroke="#ACD2FF" />
          <line x1="429.5" y1="1287" x2="429.5" y2="-185" stroke="#ACD2FF" />
          <line x1="493.5" y1="1287" x2="493.5" y2="-185" stroke="#ACD2FF" />
          <line x1="557.5" y1="1287" x2="557.5" y2="-185" stroke="#ACD2FF" />
          <line x1="621.5" y1="1287" x2="621.5" y2="-185" stroke="#ACD2FF" />
          <line x1="685.5" y1="1287" x2="685.5" y2="-185" stroke="#ACD2FF" />
          <line x1="749.5" y1="1287" x2="749.5" y2="-185" stroke="#ACD2FF" />
          <line x1="813.5" y1="1287" x2="813.5" y2="-185" stroke="#ACD2FF" />
          <line x1="877.5" y1="1287" x2="877.5" y2="-185" stroke="#ACD2FF" />
          <line x1="941.5" y1="1287" x2="941.5" y2="-185" stroke="#ACD2FF" />
          <line x1="1005.5" y1="1287" x2="1005.5" y2="-185" stroke="#ACD2FF" />
          <line x1="1069.5" y1="1287" x2="1069.5" y2="-185" stroke="#ACD2FF" />
          <line x1="1133.5" y1="1287" x2="1133.5" y2="-185" stroke="#ACD2FF" />
          <line x1="1197.5" y1="1287" x2="1197.12" y2="-185" stroke="#ACD2FF" />
          <line x1="1261.5" y1="1287" x2="1261.5" y2="-185" stroke="#ACD2FF" />
          <line x1="1325.5" y1="1287" x2="1325.5" y2="-185" stroke="#ACD2FF" /> 
          <line x1="1389.5" y1="1287" x2="1389.5" y2="-185" stroke="#ACD2FF" />
        </svg>