<svg width="593" height="456" viewBox="0 0 593 456" fill="none" xmlns="http://www.w3.org/2000/svg">
<ellipse cx="193" cy="429" rx="95" ry="11" fill="#A7A7A7" fill-opacity="0.8"/>
<ellipse cx="357" cy="429" rx="56" ry="9" fill="#A7A7A7" fill-opacity="0.8"/>
<ellipse cx="479.5" cy="429" rx="92.5" ry="11" fill="#A7A7A7" fill-opacity="0.8"/>
<ellipse cx="301.5" cy="431" rx="291.5" ry="25" fill="#A7A7A7" fill-opacity="0.5"/>
<rect x="457.519" y="221.22" width="57.7097" height="86.5646" rx="28.8549" transform="rotate(18.7581 457.519 221.22)" fill="#350000"/>
<rect x="480.396" y="326.475" width="57.7097" height="86.5646" rx="28.8549" transform="rotate(-25.4623 480.396 326.475)" fill="#350000"/>
<path d="M557.551 351.475C556.216 351.713 555.128 352.757 554.463 354.305C553.799 355.851 553.57 357.877 553.946 360.013C554.323 362.148 555.231 363.972 556.383 365.195C557.538 366.419 558.917 367.025 560.252 366.787C561.587 366.55 562.676 365.505 563.341 363.957C564.005 362.411 564.234 360.386 563.857 358.25C563.48 356.114 562.573 354.291 561.42 353.068C560.266 351.843 558.886 351.238 557.551 351.475Z" fill="#F3EAB7" stroke="#888888" stroke-width="0.4"/>
<path d="M545.412 353.628C544.077 353.866 542.989 354.91 542.324 356.458C541.659 358.004 541.43 360.03 541.807 362.165C542.184 364.301 543.092 366.124 544.244 367.348C545.398 368.572 546.778 369.177 548.113 368.94C549.448 368.703 550.536 367.658 551.201 366.11C551.866 364.564 552.095 362.539 551.718 360.403C551.341 358.267 550.433 356.444 549.281 355.221C548.127 353.996 546.747 353.391 545.412 353.628Z" fill="#F3EAB7" stroke="#888888" stroke-width="0.4"/>
<path d="M533.398 355.769C532.063 356.007 530.975 357.051 530.309 358.599C529.645 360.145 529.416 362.171 529.793 364.307C530.17 366.442 531.077 368.266 532.23 369.489C533.384 370.713 534.764 371.319 536.099 371.081C537.434 370.844 538.522 369.799 539.187 368.251C539.851 366.705 540.08 364.68 539.704 362.544C539.327 360.408 538.419 358.585 537.267 357.362C536.113 356.137 534.733 355.532 533.398 355.769Z" fill="#F3EAB7" stroke="#888888" stroke-width="0.4"/>
<path d="M543.808 328.55C542.574 329.114 541.779 330.398 541.519 332.064C541.26 333.727 541.541 335.746 542.436 337.72C543.33 339.694 544.662 341.233 546.082 342.129C547.503 343.026 548.99 343.267 550.224 342.703C551.458 342.139 552.253 340.855 552.513 339.189C552.772 337.526 552.491 335.507 551.597 333.533C550.702 331.559 549.37 330.02 547.95 329.124C546.529 328.227 545.042 327.986 543.808 328.55Z" fill="#F3EAB7" stroke="#888888" stroke-width="0.4"/>
<path d="M532.585 333.678C531.351 334.242 530.556 335.526 530.296 337.192C530.036 338.856 530.317 340.874 531.212 342.849C532.107 344.823 533.438 346.361 534.858 347.257C536.28 348.154 537.766 348.396 539 347.831C540.234 347.267 541.029 345.984 541.289 344.318C541.549 342.654 541.268 340.635 540.373 338.661C539.478 336.687 538.147 335.149 536.727 334.253C535.305 333.355 533.819 333.114 532.585 333.678Z" fill="#F3EAB7" stroke="#888888" stroke-width="0.4"/>
<path d="M521.477 338.753C520.243 339.317 519.448 340.601 519.188 342.266C518.928 343.93 519.209 345.949 520.104 347.923C520.999 349.897 522.33 351.436 523.75 352.332C525.172 353.229 526.658 353.47 527.892 352.906C529.126 352.342 529.921 351.058 530.181 349.392C530.441 347.729 530.16 345.71 529.265 343.736C528.37 341.762 527.039 340.223 525.619 339.327C524.197 338.43 522.711 338.189 521.477 338.753Z" fill="#F3EAB7" stroke="#888888" stroke-width="0.4"/>
<path d="M463.796 268.395C463.796 270.564 464.373 272.518 465.296 273.925C466.219 275.332 467.473 276.17 468.828 276.17C470.184 276.17 471.437 275.332 472.361 273.925C473.283 272.518 473.861 270.564 473.861 268.395C473.861 266.226 473.283 264.272 472.361 262.866C471.437 261.458 470.184 260.62 468.828 260.62C467.473 260.62 466.219 261.458 465.296 262.866C464.373 264.272 463.796 266.226 463.796 268.395Z" fill="#F3EAB7" stroke="#888888" stroke-width="0.4"/>
<path d="M451.463 268.395C451.463 270.564 452.04 272.518 452.963 273.925C453.886 275.332 455.14 276.17 456.495 276.17C457.851 276.17 459.104 275.332 460.028 273.925C460.95 272.518 461.528 270.564 461.528 268.395C461.528 266.226 460.95 264.272 460.028 262.866C459.104 261.458 457.851 260.62 456.495 260.62C455.14 260.62 453.886 261.458 452.963 262.866C452.04 264.272 451.463 266.226 451.463 268.395Z" fill="#F3EAB7" stroke="#888888" stroke-width="0.4"/>
<path d="M439.264 268.395C439.264 270.564 439.841 272.518 440.764 273.925C441.688 275.332 442.941 276.17 444.297 276.17C445.652 276.17 446.905 275.332 447.829 273.925C448.752 272.518 449.329 270.564 449.329 268.395C449.329 266.226 448.752 264.272 447.829 262.866C446.905 261.458 445.652 260.62 444.297 260.62C442.941 260.62 441.688 261.458 440.764 262.866C439.841 264.272 439.264 266.226 439.264 268.395Z" fill="#F3EAB7" stroke="#888888" stroke-width="0.4"/>
<path d="M468.571 249.085C467.848 251.129 467.742 253.165 468.143 254.799C468.544 256.436 469.446 257.647 470.724 258.102C472.002 258.557 473.462 258.188 474.801 257.172C476.139 256.157 477.333 254.509 478.056 252.465C478.778 250.421 478.885 248.385 478.484 246.75C478.082 245.114 477.18 243.903 475.902 243.448C474.625 242.993 473.165 243.361 471.825 244.378C470.488 245.393 469.293 247.041 468.571 249.085Z" fill="#F3EAB7" stroke="#888888" stroke-width="0.4"/>
<path d="M456.954 244.948C456.231 246.992 456.124 249.027 456.526 250.662C456.927 252.299 457.829 253.509 459.107 253.964C460.385 254.42 461.845 254.051 463.184 253.034C464.522 252.019 465.716 250.371 466.439 248.327C467.161 246.283 467.268 244.248 466.867 242.613C466.465 240.976 465.563 239.766 464.285 239.311C463.007 238.855 461.547 239.224 460.208 240.24C458.871 241.256 457.676 242.904 456.954 244.948Z" fill="#F3EAB7" stroke="#888888" stroke-width="0.4"/>
<path d="M445.452 240.85C444.729 242.894 444.622 244.929 445.024 246.564C445.425 248.201 446.327 249.411 447.605 249.866C448.883 250.322 450.343 249.953 451.682 248.937C453.02 247.921 454.214 246.273 454.937 244.229C455.659 242.186 455.766 240.15 455.365 238.515C454.963 236.878 454.061 235.668 452.783 235.213C451.505 234.757 450.045 235.126 448.706 236.143C447.369 237.158 446.174 238.806 445.452 240.85Z" fill="#F3EAB7" stroke="#888888" stroke-width="0.4"/>
<path d="M400.985 402.967L566.01 392.397C576.661 391.709 583.181 380.346 578.416 370.745L574.44 362.749C572.986 359.83 569.903 358.12 566.674 358.433L527.411 362.301C520.186 363.02 517.435 353.085 523.985 349.947C532.799 345.736 542.413 341.139 551.569 336.781C556.002 334.675 557.84 329.327 555.649 324.928L489.332 191.42C483.58 179.848 466.918 180.526 462.122 192.525L444.577 236.381C442.957 240.436 445.075 245.034 449.218 246.399L479.054 256.272C484.442 258.065 483.29 266.029 477.621 266.196C465.735 266.54 451.699 266.936 438.576 267.28C434.673 267.384 431.206 269.803 429.752 273.441L386.181 382.399C382.091 392.647 390.022 403.655 400.985 402.967Z" fill="#EC7F49"/>
<path d="M510.749 286.19L466.389 289.922C457.004 290.714 450.038 298.991 450.827 308.405C451.616 317.829 457.949 324.886 467.334 324.094C467.334 324.094 486.55 318.433 494.865 318.433C503.181 318.433 515.67 319.997 515.67 319.997C525.055 319.205 529.945 311.24 529.156 301.816C528.377 292.403 520.134 285.397 510.749 286.19Z" fill="#3A3A3A"/>
<path d="M478.701 318.434C471.981 318.434 466.533 312.964 466.533 306.216C466.533 299.468 471.981 293.998 478.701 293.998C485.42 293.998 490.868 299.468 490.868 306.216C490.868 312.964 485.42 318.434 478.701 318.434Z" fill="white"/>
<path d="M511.86 315.65C505.14 315.65 499.693 310.18 499.693 303.433C499.693 296.685 505.14 291.215 511.86 291.215C518.579 291.215 524.027 296.685 524.027 303.433C524.027 310.18 518.579 315.65 511.86 315.65Z" fill="white"/>
<path d="M511.859 309.541C508.499 309.541 505.776 306.806 505.776 303.433C505.776 300.059 508.499 297.324 511.859 297.324C515.219 297.324 517.943 300.059 517.943 303.433C517.943 306.806 515.219 309.541 511.859 309.541Z" fill="#3F4040"/>
<path d="M478.701 312.325C475.341 312.325 472.617 309.59 472.617 306.216C472.617 302.842 475.341 300.107 478.701 300.107C482.061 300.107 484.785 302.842 484.785 306.216C484.785 309.59 482.061 312.325 478.701 312.325Z" fill="#3F4040"/>
<path d="M511.123 430.185H512.732C515.649 430.185 518.006 427.809 518.006 424.89V338.97C518.006 336.04 515.639 333.674 512.732 333.674H511.123C508.206 333.674 505.849 336.051 505.849 338.97V424.879C505.839 427.809 508.206 430.185 511.123 430.185Z" fill="#EC7F49"/>
<path d="M447.39 430.185H449C451.917 430.185 454.273 427.809 454.273 424.89V338.97C454.273 336.04 451.906 333.674 449 333.674H447.39C444.473 333.674 442.117 336.051 442.117 338.97V424.879C442.117 427.809 444.473 430.185 447.39 430.185Z" fill="#EC7F49"/>
<path d="M507.779 431.426H532.799C533.868 431.426 534.729 430.561 534.729 429.487V427.163C534.729 422.774 531.189 419.209 526.808 419.209H505.838V429.477C505.838 430.561 506.71 431.426 507.779 431.426Z" fill="#EC7F49"/>
<path d="M444.048 431.426H469.067C470.136 431.426 470.998 430.561 470.998 429.487V427.163C470.998 422.774 467.458 419.209 463.077 419.209H442.106V429.477C442.117 430.561 442.978 431.426 444.048 431.426Z" fill="#EC7F49"/>
<rect x="105.801" y="129.41" width="212.477" height="86.5646" rx="34" fill="#350000"/>
<path d="M233.837 176.263H240.908C242.844 176.263 244.397 174.685 244.397 172.759V160.706C244.397 158.761 242.826 157.202 240.908 157.202H233.837C231.901 157.202 230.348 158.78 230.348 160.706V172.759C230.33 174.703 231.901 176.263 233.837 176.263Z" fill="#F3EAB7"/>
<path d="M215.588 176.263H222.658C224.595 176.263 226.147 174.685 226.147 172.759V160.706C226.147 158.761 224.576 157.202 222.658 157.202H215.588C213.651 157.202 212.098 158.78 212.098 160.706V172.759C212.098 174.703 213.67 176.263 215.588 176.263Z" fill="#FCD724"/>
<path d="M180.255 177.217H187.326C189.262 177.217 190.815 175.639 190.815 173.713V161.66C190.815 159.716 189.244 158.156 187.326 158.156H180.255C178.319 158.156 176.766 159.734 176.766 161.66V173.713C176.766 175.639 178.337 177.217 180.255 177.217Z" fill="#F3EAB7"/>
<path d="M198.744 177.217H205.814C207.75 177.217 209.303 175.639 209.303 173.713V161.66C209.303 159.716 207.732 158.156 205.814 158.156H198.744C196.807 158.156 195.254 159.734 195.254 161.66V173.713C195.254 175.639 196.807 177.217 198.744 177.217Z" fill="#F3EAB7"/>
<path d="M39.3625 143.407C7.59232 127.208 -8.1192 93.8752 4.19424 68.2655C15.5211 44.7288 46.6519 35.7947 76.7595 46.0863C77.8557 28.8053 85.6749 13.7256 99.5229 5.69048C123.693 -8.3068 157.308 4.40632 175.925 34.0886C184.968 14.5328 201.684 1.39773 220.849 1.39773C249.623 1.39773 272.952 31.0434 272.952 67.6234C272.952 81.2355 269.719 93.8936 264.165 104.424C264.932 104.405 265.7 104.405 266.485 104.405C309.619 104.405 344.586 132.143 344.586 166.357C344.586 200.57 309.619 228.308 266.485 228.308C261.826 228.308 257.259 227.978 252.82 227.354C252.875 240.361 246.955 252.248 236.085 258.21C220.867 266.576 201.154 260.448 189.554 244.635C180.328 263.09 164.086 275.326 145.598 275.326C122.981 275.326 103.761 257.018 96.5633 231.445C71.0595 254.046 36.2932 257.091 16.9462 237.645C-3.40573 217.209 0.978882 179.693 26.7385 153.827C30.7029 149.846 34.9413 146.36 39.3625 143.407ZM116.349 182.702C128.607 215.833 190.449 210.311 229.088 204.294C252.217 200.68 287.604 193.893 292.811 172.924C294.967 164.21 287.915 155.184 283.074 152.323C257.296 137.004 236.524 173.346 200.296 169.787C168.453 163.788 160.396 141.04 136.975 139.536C120.149 138.454 108.164 160.541 116.349 182.702Z" fill="#FF9AD6"/>
<path d="M204.553 109.542L154.093 74.0623C151.408 72.1728 147.608 72.9433 145.982 75.8235C134.107 96.8286 136.135 120.952 151.481 131.739C166.809 142.508 190.065 136.179 205.667 117.797C207.805 115.284 207.238 111.45 204.553 109.542Z" fill="#F36C86"/>
<path d="M276.643 72.9805L226.202 108.441C223.517 110.331 222.95 114.165 225.069 116.678C240.653 135.079 263.928 141.408 279.274 130.602C294.602 119.834 296.63 95.71 284.755 74.7049C283.129 71.8614 279.347 71.0726 276.643 72.9805Z" fill="#F36C86"/>
<path d="M195.382 107.835L158.844 82.1339C156.889 80.7581 154.148 81.3268 152.979 83.3998C144.374 98.6078 145.854 116.091 156.962 123.906C168.07 131.702 184.914 127.134 196.204 113.798C197.739 111.981 197.337 109.193 195.382 107.835Z" fill="#3F4040"/>
<path d="M184.182 103.213L165.365 89.9859C164.36 89.2888 162.953 89.5639 162.35 90.6463C157.911 98.4796 158.678 107.487 164.396 111.505C170.115 115.522 178.793 113.156 184.602 106.295C185.388 105.341 185.187 103.91 184.182 103.213Z" fill="white"/>
<path d="M273.262 83.5466L236.724 109.248C234.769 110.624 234.367 113.394 235.902 115.229C247.192 128.547 264.055 133.133 275.162 125.318C286.27 117.522 287.732 100.039 279.127 84.8307C277.958 82.7394 275.217 82.189 273.262 83.5466Z" fill="#3F4040"/>
<path d="M150.549 428.892H196.788C198.67 428.892 200.187 427.37 200.187 425.48V424.233C200.187 416.509 193.957 410.235 186.247 410.235H147.151V425.462C147.151 427.37 148.667 428.892 150.549 428.892Z" fill="#FF9AD6"/>
<path d="M296.137 266.961C296.465 291.947 294.913 316.878 292.994 341.478C296.502 342.561 300.064 342.799 303.59 342.176C306.824 296.331 307.975 247.607 299.863 205.065C298.164 196.167 295.863 187.178 292.099 182.83C290.016 190.003 288.281 193.232 289.651 201.469C290.838 208.587 292.263 215.301 293.213 222.657C295.059 237.04 295.936 252.01 296.137 266.961Z" fill="#FF9AD6"/>
<path d="M93.586 282.995C93.2572 309.43 94.8101 335.792 96.7283 361.842C93.2207 362.997 89.6582 363.254 86.1322 362.594C82.8986 314.09 81.7476 262.54 89.8591 217.521C91.5582 208.11 93.8601 198.607 97.6235 193.984C99.7062 201.579 101.442 204.991 100.072 213.705C98.8841 221.227 97.4591 228.345 96.5091 236.123C94.6639 251.331 93.787 267.181 93.586 282.995Z" fill="#FF9AD6"/>
<path d="M287.184 336.324C285.612 337.461 284.443 339.075 283.384 340.708C282.744 341.717 282.086 342.891 282.379 344.047C282.726 345.459 284.352 346.23 285.795 346.102C287.238 345.973 288.517 345.166 289.741 344.395C288.517 347.954 288.627 351.972 290.034 355.458C290.381 356.301 290.819 357.145 291.568 357.641C292.81 358.466 294.546 358.081 295.697 357.164C296.848 356.228 297.56 354.87 298.255 353.55C298.858 352.357 299.442 350.816 298.565 349.789C298.638 351.312 298.693 352.871 299.186 354.302C299.68 355.751 300.666 357.09 302.073 357.659C303.48 358.228 305.325 357.787 306.074 356.467C307.097 354.632 305.745 352.431 304.448 350.78C306.129 351.568 307.627 352.669 309.308 353.44C310.988 354.21 312.961 354.632 314.679 353.935C316.031 353.403 317.035 352.247 317.858 351.036C318.406 350.211 318.899 349.294 318.99 348.303C319.136 346.322 317.62 344.616 316.104 343.331C311.975 339.864 306.987 337.443 301.726 336.269C299.022 335.663 296.3 335.902 293.614 335.461C291.166 335.076 289.485 334.654 287.184 336.324Z" fill="#FF9AD6"/>
<path d="M107.086 359.291C108.657 360.429 109.827 362.043 110.886 363.676C111.526 364.685 112.183 365.859 111.891 367.015C111.544 368.427 109.918 369.198 108.475 369.069C107.031 368.941 105.752 368.134 104.528 367.363C105.752 370.922 105.643 374.94 104.236 378.425C103.889 379.269 103.451 380.113 102.702 380.608C101.459 381.434 99.7236 381.049 98.5727 380.131C97.4217 379.196 96.7092 377.838 96.015 376.517C95.4121 375.325 94.8275 373.784 95.7044 372.757C95.6314 374.279 95.5765 375.839 95.0833 377.27C94.59 378.719 93.6035 380.058 92.1967 380.627C90.79 381.195 88.9448 380.755 88.1958 379.434C87.1727 377.6 88.5246 375.398 89.8217 373.747C88.141 374.536 86.6429 375.637 84.9621 376.407C83.2814 377.178 81.3083 377.6 79.591 376.903C78.2391 376.371 77.2343 375.215 76.4122 374.004C75.8641 373.179 75.3708 372.261 75.2794 371.271C75.1333 369.29 76.6496 367.583 78.166 366.299C82.2948 362.832 87.2823 360.411 92.5438 359.236C95.2477 358.631 97.9698 358.87 100.655 358.429C103.122 358.062 104.802 357.64 107.086 359.291Z" fill="#FF9AD6"/>
<path d="M221.16 428.892H267.381C269.262 428.892 270.779 427.37 270.779 425.48V424.233C270.779 416.509 264.549 410.235 256.839 410.235H217.743V425.462C217.743 427.37 219.278 428.892 221.16 428.892Z" fill="#FF9AD6"/>
<path d="M217.743 420.95H227.097L236.451 214.292H217.743V420.95Z" fill="#FF9AD6"/>
<path d="M147.152 420.95H156.506L165.859 214.292H147.152V420.95Z" fill="#FF9AD6"/>
<path d="M226.201 90.2248L232.468 72.8336C232.943 71.5311 234.075 70.5956 235.427 70.3938L255.56 67.4035C256.711 67.2384 257.661 66.4496 258.063 65.3672L265.425 45.4078C265.791 44.3988 267.307 44.7474 267.197 45.8297L264.402 72.375C264.165 74.6498 262.283 76.4109 259.999 76.466L240.104 77.0163C238.716 77.053 237.419 77.7318 236.578 78.8325L227.444 90.9402C226.95 91.564 225.909 90.9953 226.201 90.2248Z" fill="#3F4040"/>
<path d="M207.257 90.0225L200.845 72.6681C200.37 71.3839 199.219 70.4483 197.867 70.2649L177.716 67.4214C176.565 67.2563 175.596 66.4858 175.195 65.4034L167.668 45.499C167.284 44.49 165.786 44.8569 165.896 45.921L168.91 72.4296C169.166 74.7044 171.066 76.4471 173.349 76.4838L193.245 76.8691C194.633 76.8874 195.93 77.5478 196.789 78.6669L206.015 90.7013C206.526 91.38 207.549 90.793 207.257 90.0225Z" fill="#3F4040"/>
<path d="M247.924 104.809L266.741 91.5825C267.746 90.8854 269.152 91.1606 269.755 92.243C274.195 100.076 273.427 109.084 267.709 113.101C261.991 117.119 253.313 114.752 247.503 107.891C246.7 106.956 246.919 105.525 247.924 104.809Z" fill="white"/>
<path d="M453.823 21.9155H403.213C364.687 21.9155 333.449 53.2729 333.449 91.9692V171.53C333.449 180.089 340.363 187.032 348.887 187.032H349.738C354.285 187.032 357.97 183.32 357.97 178.754V176.638C357.97 173.188 359.362 170.071 361.614 167.808C363.867 165.546 366.982 164.149 370.418 164.149C372.359 164.149 373.927 165.724 373.927 167.673V178.296C373.927 180.704 374.903 182.893 376.481 184.467C378.059 186.052 380.228 187.032 382.627 187.032C387.277 187.032 391.046 183.237 391.046 178.567V162.44C391.046 160.584 391.804 158.906 393.008 157.686C394.233 156.466 395.905 155.716 397.752 155.716C402.403 155.716 406.161 159.49 406.161 164.16V174.647C406.161 178.066 407.542 181.162 409.774 183.404C412.006 185.645 415.09 187.032 418.495 187.032C421.599 187.032 424.111 184.498 424.111 181.381V176.263C424.111 173.083 426.686 170.508 429.842 170.508H431.793C433.891 170.508 435.593 172.208 435.593 174.324V182.194C435.593 183.529 436.133 184.738 437.005 185.614C437.877 186.489 439.081 187.032 440.41 187.032C461.661 187.032 478.874 169.737 478.874 148.408V47.0702C478.874 33.1741 467.651 21.9155 453.823 21.9155ZM373.937 108.659C372.764 108.659 371.819 106.762 371.819 104.427C371.819 102.091 372.764 100.194 373.937 100.194C375.1 100.194 376.045 102.091 376.045 104.427C376.045 106.762 375.1 108.659 373.937 108.659ZM382.357 118.771C380.332 118.771 378.692 112.37 378.692 104.468C378.692 96.5664 380.332 90.1553 382.357 90.1553C384.391 90.1553 386.032 96.5664 386.032 104.468C386.032 112.37 384.391 118.771 382.357 118.771ZM393.361 114.622C391.337 114.622 389.696 109.743 389.696 103.728C389.696 97.7131 391.337 92.8344 393.361 92.8344C395.385 92.8344 397.026 97.7131 397.026 103.728C397.026 109.743 395.385 114.622 393.361 114.622ZM402.528 114.393C401.521 114.393 400.701 109.952 400.701 104.468C400.701 98.9849 401.521 94.5336 402.528 94.5336C403.545 94.5336 404.365 98.9849 404.365 104.468C404.365 109.952 403.545 114.393 402.528 114.393ZM410.688 108.252C408.809 108.252 407.293 106.157 407.293 103.572C407.293 100.976 408.809 98.8807 410.688 98.8807C412.557 98.8807 414.072 100.976 414.072 103.572C414.072 106.157 412.557 108.252 410.688 108.252ZM419.242 114.393C418.079 114.393 417.135 109.952 417.135 104.468C417.135 98.9849 418.079 94.5336 419.242 94.5336C420.405 94.5336 421.35 98.9849 421.35 104.468C421.35 109.952 420.405 114.393 419.242 114.393ZM429.655 118.771C427.319 118.771 425.44 112.37 425.44 104.468C425.44 96.5664 427.319 90.1553 429.655 90.1553C431.98 90.1553 433.859 96.5664 433.859 104.468C433.859 112.37 431.98 118.771 429.655 118.771ZM440.898 118.771C439.341 118.771 438.074 112.37 438.074 104.468C438.074 96.5664 439.341 90.1553 440.898 90.1553C442.445 90.1553 443.711 96.5664 443.711 104.468C443.711 112.37 442.445 118.771 440.898 118.771ZM451.477 114.903C449.65 114.903 448.176 109.879 448.176 103.676C448.176 97.4838 449.65 92.4591 451.477 92.4591C453.304 92.4591 454.778 97.4838 454.778 103.676C454.778 109.879 453.304 114.903 451.477 114.903ZM461.723 59.4338C461.723 69.2538 453.802 77.2183 444.023 77.2183H398.656C388.876 77.2183 380.945 69.2538 380.945 59.4338V56.1396C380.945 46.3196 388.876 38.3656 398.656 38.3656H444.023C453.802 38.3656 461.723 46.3196 461.723 56.1396V59.4338Z" fill="#30A549"/>
<path d="M404.365 73.5488C413.034 73.5488 420.062 66.4919 420.062 57.7867C420.062 49.0816 413.034 42.0247 404.365 42.0247C395.696 42.0247 388.668 49.0816 388.668 57.7867C388.668 66.4919 395.696 73.5488 404.365 73.5488Z" fill="#27763B"/>
<path d="M405.321 69.2225C411.61 69.2225 416.709 64.1025 416.709 57.7867C416.709 51.4708 411.61 46.3508 405.321 46.3508C399.031 46.3508 393.932 51.4708 393.932 57.7867C393.932 64.1025 399.031 69.2225 405.321 69.2225Z" fill="#3A3A3A"/>
<path d="M404.366 62.5819C407.003 62.5819 409.141 60.4349 409.141 57.7865C409.141 55.1382 407.003 52.9912 404.366 52.9912C401.728 52.9912 399.59 55.1382 399.59 57.7865C399.59 60.4349 401.728 62.5819 404.366 62.5819Z" fill="white"/>
<path d="M442.269 73.5488C450.938 73.5488 457.966 66.4919 457.966 57.7867C457.966 49.0816 450.938 42.0247 442.269 42.0247C433.6 42.0247 426.572 49.0816 426.572 57.7867C426.572 66.4919 433.6 73.5488 442.269 73.5488Z" fill="#27763B"/>
<path d="M440.338 69.2225C446.627 69.2225 451.726 64.1025 451.726 57.7867C451.726 51.4708 446.627 46.3508 440.338 46.3508C434.048 46.3508 428.949 51.4708 428.949 57.7867C428.949 64.1025 434.048 69.2225 440.338 69.2225Z" fill="#3A3A3A"/>
<path d="M439.382 62.5819C442.02 62.5819 444.158 60.4349 444.158 57.7865C444.158 55.1382 442.02 52.9912 439.382 52.9912C436.745 52.9912 434.607 55.1382 434.607 57.7865C434.607 60.4349 436.745 62.5819 439.382 62.5819Z" fill="white"/>
<rect x="299.916" y="304.288" width="106.676" height="62.956" rx="18" fill="#1E1E1E"/>
<path d="M385.102 349.646C385.102 351.567 385.416 353.297 385.915 354.539C386.165 355.16 386.458 355.65 386.773 355.981C387.087 356.312 387.41 356.471 387.728 356.471C388.046 356.471 388.368 356.312 388.683 355.981C388.997 355.65 389.29 355.16 389.54 354.539C390.04 353.297 390.353 351.567 390.353 349.646C390.353 347.725 390.04 345.995 389.54 344.753C389.29 344.132 388.997 343.642 388.683 343.311C388.368 342.98 388.046 342.821 387.728 342.821C387.41 342.821 387.087 342.98 386.773 343.311C386.458 343.642 386.165 344.132 385.915 344.753C385.416 345.995 385.102 347.725 385.102 349.646Z" fill="#F3EAB7" stroke="#A5A5A5" stroke-width="0.4"/>
<path d="M368.373 349.646C368.373 351.567 368.687 353.297 369.186 354.539C369.436 355.16 369.729 355.65 370.044 355.981C370.358 356.312 370.681 356.471 370.999 356.471C371.316 356.471 371.639 356.312 371.954 355.981C372.268 355.65 372.561 355.16 372.811 354.539C373.311 353.297 373.624 351.567 373.624 349.646C373.624 347.725 373.311 345.995 372.811 344.753C372.561 344.132 372.268 343.642 371.954 343.311C371.639 342.98 371.316 342.821 370.999 342.821C370.681 342.821 370.358 342.98 370.044 343.311C369.729 343.642 369.436 344.132 369.186 344.753C368.687 345.995 368.373 347.725 368.373 349.646Z" fill="#F3EAB7" stroke="#A5A5A5" stroke-width="0.4"/>
<path d="M360.017 349.646C360.017 351.567 360.33 353.297 360.83 354.539C361.08 355.16 361.373 355.65 361.687 355.981C362.002 356.312 362.324 356.471 362.642 356.471C362.96 356.471 363.283 356.312 363.597 355.981C363.912 355.65 364.205 355.16 364.455 354.539C364.954 353.297 365.268 351.567 365.268 349.646C365.268 347.725 364.954 345.995 364.455 344.753C364.205 344.132 363.912 343.642 363.597 343.311C363.283 342.98 362.96 342.821 362.642 342.821C362.324 342.821 362.002 342.98 361.687 343.311C361.373 343.642 361.08 344.132 360.83 344.753C360.33 345.995 360.017 347.725 360.017 349.646Z" fill="#F3EAB7" stroke="#A5A5A5" stroke-width="0.4"/>
<path d="M351.651 349.646C351.651 351.567 351.965 353.297 352.465 354.539C352.715 355.16 353.007 355.65 353.322 355.981C353.636 356.312 353.959 356.471 354.277 356.471C354.595 356.471 354.918 356.312 355.232 355.981C355.547 355.65 355.839 355.16 356.089 354.539C356.589 353.297 356.903 351.567 356.903 349.646C356.903 347.725 356.589 345.995 356.089 344.753C355.839 344.132 355.547 343.642 355.232 343.311C354.918 342.98 354.595 342.821 354.277 342.821C353.959 342.821 353.636 342.98 353.322 343.311C353.007 343.642 352.715 344.132 352.465 344.753C351.965 345.995 351.651 347.725 351.651 349.646Z" fill="#F3EAB7" stroke="#A5A5A5" stroke-width="0.4"/>
<path d="M343.287 349.646C343.287 351.567 343.6 353.297 344.1 354.539C344.35 355.16 344.643 355.65 344.957 355.981C345.272 356.312 345.594 356.471 345.912 356.471C346.23 356.471 346.553 356.312 346.867 355.981C347.182 355.65 347.475 355.16 347.725 354.539C348.224 353.297 348.538 351.567 348.538 349.646C348.538 347.725 348.224 345.995 347.725 344.753C347.475 344.132 347.182 343.642 346.867 343.311C346.553 342.98 346.23 342.821 345.912 342.821C345.594 342.821 345.272 342.98 344.957 343.311C344.643 343.642 344.35 344.132 344.1 344.753C343.6 345.995 343.287 347.725 343.287 349.646Z" fill="#F3EAB7" stroke="#A5A5A5" stroke-width="0.4"/>
<path d="M334.93 349.646C334.93 351.567 335.244 353.297 335.743 354.539C335.993 355.16 336.286 355.65 336.601 355.981C336.915 356.312 337.238 356.471 337.556 356.471C337.874 356.471 338.196 356.312 338.511 355.981C338.826 355.65 339.118 355.16 339.368 354.539C339.868 353.297 340.181 351.567 340.181 349.646C340.181 347.725 339.868 345.995 339.368 344.753C339.118 344.132 338.826 343.642 338.511 343.311C338.196 342.98 337.874 342.821 337.556 342.821C337.238 342.821 336.915 342.98 336.601 343.311C336.286 343.642 335.993 344.132 335.743 344.753C335.244 345.995 334.93 347.725 334.93 349.646Z" fill="#F3EAB7" stroke="#A5A5A5" stroke-width="0.4"/>
<path d="M368.373 310.953C368.373 312.874 368.687 314.603 369.186 315.846C369.436 316.467 369.729 316.957 370.044 317.288C370.358 317.618 370.681 317.778 370.999 317.778C371.316 317.778 371.639 317.618 371.954 317.288C372.268 316.957 372.561 316.467 372.811 315.846C373.311 314.603 373.624 312.874 373.624 310.953C373.624 309.032 373.311 307.302 372.811 306.06C372.561 305.439 372.268 304.949 371.954 304.618C371.639 304.287 371.316 304.128 370.999 304.128C370.681 304.128 370.358 304.287 370.044 304.618C369.729 304.949 369.436 305.439 369.186 306.06C368.687 307.302 368.373 309.032 368.373 310.953Z" fill="#F3EAB7" stroke="#A5A5A5" stroke-width="0.4"/>
<path d="M334.93 310.953C334.93 312.874 335.244 314.603 335.743 315.846C335.993 316.467 336.286 316.957 336.601 317.288C336.915 317.618 337.238 317.778 337.556 317.778C337.874 317.778 338.196 317.618 338.511 317.288C338.826 316.957 339.118 316.467 339.368 315.846C339.868 314.603 340.181 312.874 340.181 310.953C340.181 309.032 339.868 307.302 339.368 306.06C339.118 305.439 338.826 304.949 338.511 304.618C338.196 304.287 337.874 304.128 337.556 304.128C337.238 304.128 336.915 304.287 336.601 304.618C336.286 304.949 335.993 305.439 335.743 306.06C335.244 307.302 334.93 309.032 334.93 310.953Z" fill="#F3EAB7" stroke="#A5A5A5" stroke-width="0.4"/>
<path d="M318.202 349.646C318.202 351.567 318.515 353.297 319.015 354.539C319.265 355.16 319.558 355.65 319.872 355.981C320.187 356.312 320.509 356.471 320.827 356.471C321.145 356.471 321.468 356.312 321.782 355.981C322.097 355.65 322.39 355.16 322.64 354.539C323.139 353.297 323.453 351.567 323.453 349.646C323.453 347.725 323.139 345.995 322.64 344.753C322.39 344.132 322.097 343.642 321.782 343.311C321.468 342.98 321.145 342.821 320.827 342.821C320.509 342.821 320.187 342.98 319.872 343.311C319.558 343.642 319.265 344.132 319.015 344.753C318.515 345.995 318.202 347.725 318.202 349.646Z" fill="#F3EAB7" stroke="#A5A5A5" stroke-width="0.4"/>
<path d="M357.63 305.213L357.63 305.214L359.551 320.717C359.551 320.717 359.551 320.718 359.551 320.718C359.581 320.954 359.745 321.185 360.028 321.363C360.31 321.54 360.694 321.652 361.121 321.652C361.545 321.652 361.926 321.543 362.207 321.371C362.49 321.198 362.656 320.971 362.692 320.737C362.692 320.736 362.693 320.736 362.693 320.736L365.006 305.233C365.006 305.233 365.006 305.233 365.006 305.233C365.044 304.968 364.917 304.7 364.634 304.486C364.35 304.272 363.926 304.128 363.434 304.128H359.2C358.716 304.128 358.295 304.269 358.011 304.479C357.728 304.689 357.597 304.952 357.63 305.213Z" fill="#F3EAB7" stroke="#A5A5A5" stroke-width="0.4"/>
<path d="M383.446 355.386L383.446 355.385L381.525 339.882C381.525 339.881 381.525 339.881 381.525 339.881C381.495 339.645 381.331 339.414 381.048 339.236C380.766 339.059 380.382 338.947 379.955 338.947C379.531 338.947 379.15 339.056 378.869 339.228C378.587 339.401 378.42 339.628 378.384 339.862C378.384 339.862 378.384 339.863 378.383 339.863L376.071 355.366C376.071 355.366 376.071 355.366 376.07 355.366C376.032 355.63 376.161 355.898 376.445 356.112C376.73 356.327 377.154 356.471 377.642 356.471H381.876C382.36 356.471 382.781 356.33 383.065 356.12C383.348 355.91 383.479 355.647 383.446 355.386Z" fill="#F3EAB7" stroke="#A5A5A5" stroke-width="0.4"/>
<path d="M332.876 355.386L332.876 355.385L330.955 339.882C330.955 339.881 330.955 339.881 330.955 339.881C330.924 339.645 330.761 339.414 330.477 339.236C330.196 339.059 329.811 338.947 329.384 338.947C328.96 338.947 328.579 339.056 328.298 339.228C328.016 339.401 327.849 339.628 327.813 339.862C327.813 339.862 327.813 339.863 327.813 339.863L325.5 355.366C325.5 355.366 325.5 355.366 325.5 355.366C325.461 355.63 325.59 355.898 325.874 356.112C326.159 356.327 326.583 356.471 327.071 356.471H331.305C331.789 356.471 332.21 356.33 332.494 356.12C332.778 355.91 332.908 355.647 332.876 355.386Z" fill="#F3EAB7" stroke="#A5A5A5" stroke-width="0.4"/>
<path d="M345.647 305.213L345.647 305.214L347.568 320.717C347.568 320.717 347.568 320.718 347.568 320.718C347.598 320.954 347.762 321.185 348.045 321.363C348.327 321.54 348.711 321.652 349.138 321.652C349.562 321.652 349.943 321.543 350.224 321.371C350.507 321.198 350.673 320.971 350.71 320.737C350.71 320.736 350.71 320.736 350.71 320.736L353.023 305.233C353.023 305.233 353.023 305.233 353.023 305.233C353.061 304.969 352.933 304.701 352.648 304.487C352.363 304.272 351.939 304.128 351.452 304.128H347.217C346.733 304.128 346.312 304.269 346.029 304.479C345.745 304.689 345.614 304.952 345.647 305.213Z" fill="#F3EAB7" stroke="#A5A5A5" stroke-width="0.4"/>
<path d="M358.599 299.491H385.582C387.023 299.491 388.183 298.253 388.055 296.815C387.063 286.277 380.299 278.135 372.087 278.135C363.89 278.135 357.126 286.277 356.134 296.815C355.99 298.253 357.158 299.491 358.599 299.491Z" fill="#2F66B0"/>
<path d="M322.067 300.737H349.05C350.491 300.737 351.652 299.5 351.524 298.061C350.531 287.523 343.767 279.381 335.555 279.381C327.358 279.381 320.595 287.523 319.602 298.061C319.458 299.508 320.627 300.737 322.067 300.737Z" fill="#2F66B0"/>
<path d="M353.941 291.341C396.629 291.341 428.07 320.895 428.07 353.978C428.07 387.069 396.629 413.891 353.941 413.891C311.254 413.891 282.518 387.069 282.518 353.978C282.518 320.895 311.254 291.341 353.941 291.341ZM304.826 349.646H403.048C404.625 349.646 405.898 348.376 405.762 346.889C403.777 325.911 382.029 307.85 352.973 307.85C323.917 307.85 303.922 325.919 302.113 346.905C301.993 348.384 303.257 349.646 304.826 349.646Z" fill="#2F66B0"/>
<path d="M362.313 297.795H381.86C382.901 297.795 383.749 296.903 383.645 295.858C382.925 288.23 378.026 282.331 372.079 282.331C366.14 282.331 361.241 288.23 360.521 295.858C360.432 296.903 361.273 297.795 362.313 297.795Z" fill="#3F4040"/>
<path d="M325.925 297.795H345.472C346.513 297.795 347.361 296.903 347.257 295.858C346.537 288.23 341.638 282.331 335.691 282.331C329.751 282.331 324.853 288.23 324.132 295.858C324.044 296.903 324.885 297.795 325.925 297.795Z" fill="#3F4040"/>
<path d="M369.342 295.914H380.996C380.996 292.683 378.387 290.063 375.169 290.063C371.951 290.063 369.342 292.683 369.342 295.914Z" fill="white"/>
<path d="M331.032 295.914H342.687C342.687 292.683 340.077 290.063 336.859 290.063C333.642 290.063 331.032 292.683 331.032 295.914Z" fill="white"/>
<path d="M370.23 430.384H386.575C387.4 430.384 388.064 429.717 388.064 428.889V428.343C388.064 424.959 385.334 422.21 381.957 422.21H368.733V428.881C368.741 429.717 369.406 430.384 370.23 430.384Z" fill="#2F66B0"/>
<path d="M263.515 348.448L297.766 358.086L294.924 366.646L262.682 350.956L263.515 348.448Z" fill="#2F66B0"/>
<path d="M265.669 344.88C265.405 344.068 264.892 343.361 264.356 342.693C264.028 342.283 263.628 341.857 263.107 341.825C262.475 341.777 261.931 342.356 261.795 342.983C261.659 343.602 261.811 344.253 261.971 344.872C260.658 343.875 258.977 343.385 257.336 343.505C256.944 343.537 256.536 343.61 256.224 343.859C255.719 344.269 255.639 345.04 255.871 345.651C256.103 346.262 256.568 346.744 257.032 347.203C257.44 347.62 258.009 348.071 258.545 347.837C257.904 347.661 257.248 347.484 256.584 347.492C255.919 347.508 255.223 347.733 254.799 348.247C254.375 348.762 254.303 349.59 254.759 350.088C255.383 350.763 256.48 350.498 257.336 350.168C256.784 350.763 256.12 351.245 255.575 351.848C255.031 352.451 254.591 353.215 254.647 354.026C254.687 354.661 255.031 355.24 255.423 355.747C255.695 356.092 255.999 356.422 256.4 356.582C257.208 356.912 258.113 356.502 258.849 356.036C260.85 354.774 262.523 353.014 263.716 350.972C264.332 349.919 264.604 348.754 265.14 347.685C265.653 346.712 266.053 346.061 265.669 344.88Z" fill="#2F66B0"/>
<path d="M450.138 349.244L415.887 358.881L418.737 367.442L450.979 351.752L450.138 349.244Z" fill="#2F66B0"/>
<path d="M447.985 345.675C448.249 344.863 448.761 344.156 449.297 343.489C449.625 343.079 450.026 342.653 450.546 342.621C451.178 342.573 451.723 343.151 451.859 343.778C451.995 344.405 451.843 345.048 451.683 345.667C452.995 344.671 454.676 344.18 456.317 344.301C456.709 344.333 457.118 344.405 457.43 344.654C457.934 345.064 458.014 345.836 457.782 346.447C457.55 347.058 457.086 347.54 456.621 347.998C456.213 348.416 455.645 348.866 455.108 348.633C455.749 348.456 456.405 348.279 457.07 348.288C457.734 348.304 458.43 348.529 458.855 349.043C459.279 349.557 459.351 350.385 458.895 350.884C458.27 351.559 457.174 351.294 456.317 350.964C456.869 351.559 457.534 352.041 458.078 352.644C458.622 353.247 459.063 354.01 459.007 354.822C458.967 355.457 458.622 356.036 458.23 356.542C457.958 356.888 457.654 357.217 457.254 357.378C456.445 357.708 455.541 357.298 454.804 356.832C452.803 355.57 451.13 353.809 449.938 351.768C449.321 350.715 449.049 349.549 448.513 348.48C448.009 347.5 447.6 346.857 447.985 345.675Z" fill="#2F66B0"/>
<path d="M376.545 401.489H359.064L366.964 427.603C367.468 429.259 368.981 430.392 370.702 430.392H375.865L376.545 401.489Z" fill="#2F66B0"/>
<path d="M343.047 430.384H326.702C325.878 430.384 325.213 429.717 325.213 428.889V428.343C325.213 424.959 327.943 422.21 331.321 422.21H344.544V428.881C344.536 429.717 343.864 430.384 343.047 430.384Z" fill="#2F66B0"/>
<path d="M336.732 401.489H354.213L346.313 427.603C345.809 429.259 344.296 430.392 342.575 430.392H337.412L336.732 401.489Z" fill="#2F66B0"/>
</svg>
