<svg width="302" height="327" viewBox="0 0 302 327" fill="none" xmlns="http://www.w3.org/2000/svg">
            <rect x="36.0618" y="201.207" width="221.112" height="130.492" rx="54" fill="#1E1E1E" />
            <path
              d="M212.417 295.224C212.417 299.226 213.07 302.839 214.118 305.445C214.642 306.749 215.261 307.79 215.939 308.502C216.616 309.214 217.337 309.585 218.074 309.585C218.81 309.585 219.531 309.214 220.208 308.502C220.886 307.79 221.505 306.749 222.029 305.445C223.077 302.839 223.73 299.226 223.73 295.224C223.73 291.222 223.077 287.608 222.029 285.002C221.505 283.699 220.886 282.657 220.208 281.945C219.531 281.233 218.81 280.863 218.074 280.863C217.337 280.863 216.616 281.233 215.939 281.945C215.261 282.657 214.642 283.699 214.118 285.002C213.07 287.608 212.417 291.222 212.417 295.224Z"
              fill="#F3EAB7"
              stroke="#A5A5A5"
              stroke-width="0.4"
            />
            <path
              d="M177.742 295.224C177.742 299.226 178.395 302.839 179.443 305.445C179.967 306.749 180.586 307.79 181.264 308.502C181.941 309.214 182.662 309.585 183.398 309.585C184.135 309.585 184.856 309.214 185.533 308.502C186.211 307.79 186.83 306.749 187.354 305.445C188.402 302.839 189.055 299.226 189.055 295.224C189.055 291.222 188.402 287.608 187.354 285.002C186.83 283.699 186.211 282.657 185.533 281.945C184.856 281.233 184.135 280.863 183.398 280.863C182.662 280.863 181.941 281.233 181.264 281.945C180.586 282.657 179.967 283.699 179.443 285.002C178.395 287.608 177.742 291.222 177.742 295.224Z"
              fill="#F3EAB7"
              stroke="#A5A5A5"
              stroke-width="0.4"
            />
            <path
              d="M160.421 295.224C160.421 299.226 161.074 302.839 162.122 305.445C162.646 306.749 163.265 307.79 163.943 308.502C164.62 309.214 165.341 309.585 166.078 309.585C166.814 309.585 167.535 309.214 168.212 308.502C168.89 307.79 169.509 306.749 170.033 305.445C171.082 302.839 171.734 299.226 171.734 295.224C171.734 291.222 171.082 287.608 170.033 285.002C169.509 283.699 168.89 282.657 168.212 281.945C167.535 281.233 166.814 280.863 166.078 280.863C165.341 280.863 164.62 281.233 163.943 281.945C163.265 282.657 162.646 283.699 162.122 285.002C161.074 287.608 160.421 291.222 160.421 295.224Z"
              fill="#F3EAB7"
              stroke="#A5A5A5"
              stroke-width="0.4"
            />
            <path
              d="M143.082 295.224C143.082 299.226 143.735 302.839 144.783 305.445C145.307 306.749 145.926 307.79 146.604 308.502C147.281 309.214 148.002 309.585 148.738 309.585C149.475 309.585 150.196 309.214 150.873 308.502C151.551 307.79 152.17 306.749 152.694 305.445C153.742 302.839 154.395 299.226 154.395 295.224C154.395 291.222 153.742 287.608 152.694 285.002C152.17 283.699 151.551 282.657 150.873 281.945C150.196 281.233 149.475 280.863 148.738 280.863C148.002 280.863 147.281 281.233 146.604 281.945C145.926 282.657 145.307 283.699 144.783 285.002C143.735 287.608 143.082 291.222 143.082 295.224Z"
              fill="#F3EAB7"
              stroke="#A5A5A5"
              stroke-width="0.4"
            />
            <path
              d="M125.744 295.224C125.744 299.226 126.397 302.839 127.445 305.445C127.969 306.749 128.589 307.79 129.266 308.502C129.943 309.214 130.664 309.585 131.401 309.585C132.137 309.585 132.858 309.214 133.535 308.502C134.213 307.79 134.832 306.749 135.356 305.445C136.405 302.839 137.057 299.226 137.057 295.224C137.057 291.222 136.405 287.608 135.356 285.002C134.832 283.699 134.213 282.657 133.535 281.945C132.858 281.233 132.137 280.863 131.401 280.863C130.664 280.863 129.943 281.233 129.266 281.945C128.589 282.657 127.969 283.699 127.445 285.002C126.397 287.608 125.744 291.222 125.744 295.224Z"
              fill="#F3EAB7"
              stroke="#A5A5A5"
              stroke-width="0.4"
            />
            <path
              d="M108.423 295.224C108.423 299.226 109.076 302.839 110.124 305.445C110.648 306.749 111.268 307.79 111.945 308.502C112.622 309.214 113.344 309.585 114.08 309.585C114.816 309.585 115.538 309.214 116.215 308.502C116.892 307.79 117.511 306.749 118.036 305.445C119.084 302.839 119.737 299.226 119.737 295.224C119.737 291.222 119.084 287.608 118.036 285.002C117.511 283.699 116.892 282.657 116.215 281.945C115.538 281.233 114.816 280.863 114.08 280.863C113.344 280.863 112.622 281.233 111.945 281.945C111.268 282.657 110.648 283.699 110.124 285.002C109.076 287.608 108.423 291.222 108.423 295.224Z"
              fill="#F3EAB7"
              stroke="#A5A5A5"
              stroke-width="0.4"
            />
            <path
              d="M177.742 215.023C177.742 219.024 178.395 222.638 179.443 225.244C179.967 226.547 180.586 227.589 181.264 228.301C181.941 229.013 182.662 229.383 183.398 229.383C184.135 229.383 184.856 229.013 185.533 228.301C186.211 227.589 186.83 226.547 187.354 225.244C188.402 222.638 189.055 219.024 189.055 215.023C189.055 211.021 188.402 207.407 187.354 204.801C186.83 203.498 186.211 202.456 185.533 201.744C184.856 201.032 184.135 200.662 183.398 200.662C182.662 200.662 181.941 201.032 181.264 201.744C180.586 202.456 179.967 203.498 179.443 204.801C178.395 207.407 177.742 211.021 177.742 215.023Z"
              fill="#F3EAB7"
              stroke="#A5A5A5"
              stroke-width="0.4"
            />
            <path
              d="M108.423 215.023C108.423 219.024 109.076 222.638 110.124 225.244C110.648 226.547 111.268 227.589 111.945 228.301C112.622 229.013 113.344 229.383 114.08 229.383C114.816 229.383 115.538 229.013 116.215 228.301C116.892 227.589 117.511 226.547 118.036 225.244C119.084 222.638 119.737 219.024 119.737 215.023C119.737 211.021 119.084 207.407 118.036 204.801C117.511 203.498 116.892 202.456 116.215 201.744C115.538 201.032 114.816 200.662 114.08 200.662C113.344 200.662 112.622 201.032 111.945 201.744C111.268 202.456 110.648 203.498 110.124 204.801C109.076 207.407 108.423 211.021 108.423 215.023Z"
              fill="#F3EAB7"
              stroke="#A5A5A5"
              stroke-width="0.4"
            />
            <path
              d="M73.7489 295.224C73.7489 299.226 74.4017 302.839 75.4498 305.445C75.9741 306.749 76.5933 307.79 77.2708 308.502C77.9477 309.214 78.6691 309.585 79.4055 309.585C80.1418 309.585 80.8633 309.214 81.5402 308.502C82.2177 307.79 82.837 306.749 83.3613 305.445C84.4094 302.839 85.0622 299.226 85.0622 295.224C85.0622 291.222 84.4094 287.608 83.3613 285.002C82.837 283.699 82.2177 282.657 81.5402 281.945C80.8633 281.233 80.1418 280.863 79.4055 280.863C78.6691 280.863 77.9477 281.233 77.2708 281.945C76.5933 282.657 75.9741 283.699 75.4498 285.002C74.4017 287.608 73.7489 291.222 73.7489 295.224Z"
              fill="#F3EAB7"
              stroke="#A5A5A5"
              stroke-width="0.4"
            />
            <path
              d="M155.475 203.153L155.475 203.153L159.457 235.289C159.457 235.289 159.457 235.289 159.457 235.289C159.53 235.862 159.921 236.391 160.544 236.782C161.167 237.172 162.004 237.414 162.925 237.414C163.838 237.414 164.668 237.18 165.288 236.8C165.909 236.418 166.305 235.901 166.394 235.334C166.394 235.334 166.394 235.334 166.394 235.334L171.188 203.198C171.188 203.198 171.188 203.198 171.188 203.198C171.283 202.549 170.964 201.924 170.334 201.448C169.704 200.972 168.778 200.662 167.72 200.662H158.943C157.901 200.662 156.982 200.964 156.351 201.43C155.721 201.897 155.395 202.512 155.475 203.153Z"
              fill="#F3EAB7"
              stroke="#A5A5A5"
              stroke-width="0.4"
            />
            <path
              d="M209.412 307.094L209.412 307.094L205.431 274.957C205.431 274.957 205.431 274.957 205.431 274.957C205.357 274.384 204.966 273.856 204.343 273.465C203.721 273.075 202.883 272.833 201.962 272.833C201.049 272.833 200.219 273.067 199.599 273.447C198.977 273.828 198.581 274.346 198.493 274.912C198.493 274.912 198.493 274.913 198.493 274.913L193.699 307.048C193.699 307.048 193.699 307.048 193.699 307.049C193.605 307.697 193.926 308.322 194.559 308.798C195.191 309.275 196.118 309.585 197.167 309.585H205.944C206.986 309.585 207.905 309.283 208.536 308.816C209.166 308.35 209.492 307.735 209.412 307.094Z"
              fill="#F3EAB7"
              stroke="#A5A5A5"
              stroke-width="0.4"
            />
            <path
              d="M104.592 307.094L104.592 307.094L100.61 274.957C100.61 274.957 100.61 274.957 100.61 274.957C100.537 274.384 100.146 273.856 99.5223 273.465C98.9002 273.075 98.0627 272.833 97.142 272.833C96.2287 272.833 95.3989 273.067 94.7786 273.447C94.1572 273.828 93.7612 274.346 93.673 274.912C93.673 274.912 93.673 274.913 93.6729 274.913L88.8785 307.048C88.8784 307.048 88.8784 307.048 88.8784 307.049C88.7843 307.697 89.106 308.322 89.7382 308.798C90.3707 309.275 91.2974 309.585 92.3471 309.585H101.124C102.166 309.585 103.085 309.283 103.715 308.816C104.346 308.35 104.672 307.735 104.592 307.094Z"
              fill="#F3EAB7"
              stroke="#A5A5A5"
              stroke-width="0.4"
            />
            <path
              d="M130.637 203.153L130.637 203.153L134.619 235.289C134.619 235.289 134.619 235.289 134.619 235.289C134.692 235.862 135.084 236.391 135.707 236.782C136.329 237.172 137.167 237.414 138.087 237.414C139.001 237.414 139.831 237.18 140.451 236.8C141.072 236.418 141.468 235.901 141.556 235.334C141.556 235.334 141.556 235.334 141.556 235.334L146.351 203.198C146.351 203.198 146.351 203.198 146.351 203.198C146.445 202.55 146.124 201.924 145.491 201.448C144.859 200.972 143.932 200.662 142.882 200.662H134.106C133.064 200.662 132.145 200.964 131.514 201.43C130.883 201.897 130.558 202.512 130.637 203.153Z"
              fill="#F3EAB7"
              stroke="#A5A5A5"
              stroke-width="0.4"
            />
            <path
              d="M157.697 191.266H213.626C216.612 191.266 219.018 188.7 218.753 185.718C216.695 163.877 202.676 147 185.653 147C168.664 147 154.645 163.877 152.587 185.718C152.289 188.7 154.711 191.266 157.697 191.266Z"
              fill="#2F66B0"
            />
            <path
              d="M81.9759 193.848H137.905C140.891 193.848 143.297 191.282 143.031 188.3C140.974 166.459 126.955 149.582 109.932 149.582C92.9427 149.582 78.9232 166.459 76.8659 188.3C76.5673 191.299 78.9895 193.848 81.9759 193.848Z"
              fill="#2F66B0"
            />
            <path
              d="M148.043 174.372C236.523 174.372 301.693 235.631 301.693 304.204C301.693 372.793 236.523 428.387 148.043 428.387C59.562 428.387 -5.90586e-05 372.793 -5.90586e-05 304.204C-5.90586e-05 235.631 59.562 174.372 148.043 174.372ZM46.2394 295.224H249.829C253.098 295.224 255.735 292.592 255.453 289.509C251.339 246.027 206.261 208.592 146.035 208.592C85.8092 208.592 44.3646 246.043 40.615 289.543C40.3661 292.608 42.9875 295.224 46.2394 295.224Z"
              fill="#2F66B0"
            />
            <path
              d="M165.396 187.75H205.911C208.068 187.75 209.827 185.901 209.611 183.735C208.118 167.925 197.964 155.696 185.637 155.696C173.327 155.696 163.173 167.925 161.68 183.735C161.497 185.901 163.239 187.75 165.396 187.75Z"
              fill="#3F4040"
            />
            <path
              d="M89.9725 187.75H130.488C132.645 187.75 134.404 185.901 134.188 183.735C132.695 167.925 122.541 155.696 110.214 155.696C97.9031 155.696 87.7493 167.925 86.2561 183.735C86.0736 185.901 87.8156 187.75 89.9725 187.75Z"
              fill="#3F4040"
            />
            <path
              d="M179.964 183.852H204.121C204.121 177.154 198.712 171.723 192.042 171.723C185.373 171.723 179.964 177.154 179.964 183.852Z"
              fill="white"
            />
            <path
              d="M100.558 183.852H124.714C124.714 177.154 119.306 171.723 112.636 171.723C105.966 171.723 100.558 177.154 100.558 183.852Z"
              fill="white"
            />
            <mask id="path-22-inside-1_327_1844" fill="white">
              <path
                fillRule="evenodd"
                clip-rule="evenodd"
                d="M185.563 114.874C206.71 95.5544 208.193 62.7496 188.873 41.602C169.554 20.4544 136.75 18.9721 115.602 38.2912C94.4543 57.6103 92.972 90.415 112.291 111.563C119.895 119.887 129.589 125.164 139.839 127.325C140.152 127.391 140.417 127.6 140.55 127.891L148.385 144.975C148.724 145.715 149.757 145.762 150.162 145.056L159.958 127.957C160.104 127.702 160.354 127.525 160.641 127.469C169.645 125.698 178.293 121.515 185.563 114.874Z"
              />
            </mask>
            <path
              fillRule="evenodd"
              clip-rule="evenodd"
              d="M185.563 114.874C206.71 95.5544 208.193 62.7496 188.873 41.602C169.554 20.4544 136.75 18.9721 115.602 38.2912C94.4543 57.6103 92.972 90.415 112.291 111.563C119.895 119.887 129.589 125.164 139.839 127.325C140.152 127.391 140.417 127.6 140.55 127.891L148.385 144.975C148.724 145.715 149.757 145.762 150.162 145.056L159.958 127.957C160.104 127.702 160.354 127.525 160.641 127.469C169.645 125.698 178.293 121.515 185.563 114.874Z"
              fill="#FBFBFB"
            />
            <path
              d="M159.958 127.957L160.826 128.454L159.958 127.957ZM160.641 127.469L160.834 128.45L160.641 127.469ZM148.385 144.975L147.476 145.392L148.385 144.975ZM150.162 145.056L151.029 145.553L150.162 145.056ZM139.839 127.325L140.045 126.347L139.839 127.325ZM140.55 127.891L139.641 128.308L140.55 127.891ZM188.135 42.2765C207.082 63.0164 205.628 95.1886 184.888 114.135L186.237 115.612C207.792 95.9202 209.303 62.4829 189.612 40.9276L188.135 42.2765ZM116.276 39.0295C137.016 20.0829 169.189 21.5366 188.135 42.2765L189.612 40.9276C169.92 19.3722 136.483 17.8613 114.927 37.5529L116.276 39.0295ZM113.029 110.888C94.0828 90.1483 95.5366 57.9761 116.276 39.0295L114.927 37.5529C93.3721 57.2445 91.8612 90.6817 111.553 112.237L113.029 110.888ZM140.045 126.347C129.993 124.227 120.488 119.053 113.029 110.888L111.553 112.237C119.303 120.721 129.185 126.101 139.632 128.304L140.045 126.347ZM149.294 144.559L141.459 127.474L139.641 128.308L147.476 145.392L149.294 144.559ZM159.091 127.459L149.294 144.559L151.029 145.553L160.826 128.454L159.091 127.459ZM184.888 114.135C177.757 120.65 169.278 124.751 160.448 126.488L160.834 128.45C170.013 126.645 178.828 122.38 186.237 115.612L184.888 114.135ZM160.826 128.454C160.825 128.455 160.827 128.452 160.834 128.45L160.448 126.488C159.881 126.599 159.383 126.95 159.091 127.459L160.826 128.454ZM147.476 145.392C148.154 146.871 150.221 146.965 151.029 145.553L149.294 144.559L149.294 144.559L147.476 145.392ZM139.632 128.304C139.636 128.304 139.639 128.306 139.64 128.307C139.641 128.308 139.641 128.308 139.641 128.308C139.641 128.308 139.641 128.308 139.641 128.308C139.641 128.308 139.641 128.308 139.641 128.308L141.459 127.474C141.192 126.89 140.663 126.477 140.045 126.347L139.632 128.304Z"
              fill="#7A7A7A"
              mask="url(#path-22-inside-1_327_1844)"
            />
            <path d="M130.282 91.75L151.5 55L172.718 91.75H130.282Z" stroke="#EC7F49" stroke-width="8" />
          </svg>