<svg
              
              width="92"
              height="86"
              viewBox="0 0 92 86"
              fill="none"
              xmlns="http://www.w3.org/2000/svg"
            >
              <path
                d="M21.0404 62.4133C22.2857 62.4133 23.2953 59.9138 23.2953 56.8306C23.2953 53.7473 22.2857 51.2478 21.0404 51.2478C19.7951 51.2478 18.7856 53.7473 18.7856 56.8306C18.7856 59.9138 19.7951 62.4133 21.0404 62.4133Z"
                fill="#F3EAB7"
              />
              <path
                d="M34.3906 62.4133C35.6359 62.4133 36.6454 59.9138 36.6454 56.8306C36.6454 53.7473 35.6359 51.2478 34.3906 51.2478C33.1453 51.2478 32.1357 53.7473 32.1357 56.8306C32.1357 59.9138 33.1453 62.4133 34.3906 62.4133Z"
                fill="#F3EAB7"
              />
              <path
                d="M41.059 62.4133C42.3043 62.4133 43.3138 59.9138 43.3138 56.8306C43.3138 53.7473 42.3043 51.2478 41.059 51.2478C39.8137 51.2478 38.8042 53.7473 38.8042 56.8306C38.8042 59.9138 39.8137 62.4133 41.059 62.4133Z"
                fill="#F3EAB7"
              />
              <path
                d="M47.7343 62.4133C48.9796 62.4133 49.9891 59.9138 49.9891 56.8306C49.9891 53.7473 48.9796 51.2478 47.7343 51.2478C46.489 51.2478 45.4795 53.7473 45.4795 56.8306C45.4795 59.9138 46.489 62.4133 47.7343 62.4133Z"
                fill="#F3EAB7"
              />
              <path
                d="M54.4096 62.4133C55.6549 62.4133 56.6644 59.9138 56.6644 56.8306C56.6644 53.7473 55.6549 51.2478 54.4096 51.2478C53.1643 51.2478 52.1548 53.7473 52.1548 56.8306C52.1548 59.9138 53.1643 62.4133 54.4096 62.4133Z"
                fill="#F3EAB7"
              />
              <path
                d="M61.078 62.4133C62.3233 62.4133 63.3329 59.9138 63.3329 56.8306C63.3329 53.7473 62.3233 51.2478 61.078 51.2478C59.8327 51.2478 58.8232 53.7473 58.8232 56.8306C58.8232 59.9138 59.8327 62.4133 61.078 62.4133Z"
                fill="#F3EAB7"
              />
              <path
                d="M34.3906 31.6631C35.6359 31.6631 36.6454 29.1636 36.6454 26.0803C36.6454 22.997 35.6359 20.4976 34.3906 20.4976C33.1453 20.4976 32.1357 22.997 32.1357 26.0803C32.1357 29.1636 33.1453 31.6631 34.3906 31.6631Z"
                fill="#F3EAB7"
              />
              <path
                d="M61.078 31.6631C62.3233 31.6631 63.3329 29.1636 63.3329 26.0803C63.3329 22.997 62.3233 20.4976 61.078 20.4976C59.8327 20.4976 58.8232 22.997 58.8232 26.0803C58.8232 29.1636 59.8327 31.6631 61.078 31.6631Z"
                fill="#F3EAB7"
              />
              <path
                d="M74.4287 62.4133C75.674 62.4133 76.6835 59.9138 76.6835 56.8306C76.6835 53.7473 75.674 51.2478 74.4287 51.2478C73.1834 51.2478 72.1738 53.7473 72.1738 56.8306C72.1738 59.9138 73.1834 62.4133 74.4287 62.4133Z"
                fill="#F3EAB7"
              />
              <path
                d="M40.4271 20.4976H43.8061C44.6365 20.4976 45.2881 20.9766 45.2178 21.5387L43.6848 33.8604C43.6209 34.3586 43.0077 34.7419 42.2731 34.7419C41.5449 34.7419 40.9381 34.3714 40.8615 33.8796L39.0154 21.5579C38.9324 20.9894 39.584 20.4976 40.4271 20.4976Z"
                fill="#F3EAB7"
              />
              <path
                d="M29.0889 62.4128H25.7098C24.8794 62.4128 24.2279 61.9337 24.2982 61.3716L25.8312 49.0499C25.895 48.5517 26.5083 48.1685 27.2428 48.1685C27.971 48.1685 28.5779 48.5389 28.6545 49.0308L30.5005 61.3525C30.5835 61.921 29.9256 62.4128 29.0889 62.4128Z"
                fill="#F3EAB7"
              />
              <path
                d="M69.4458 62.4128H66.0667C65.2363 62.4128 64.5848 61.9337 64.6551 61.3716L66.1881 49.0499C66.252 48.5517 66.8652 48.1685 67.5998 48.1685C68.328 48.1685 68.9348 48.5389 69.0114 49.0308L70.8574 61.3525C70.9405 61.921 70.2826 62.4128 69.4458 62.4128Z"
                fill="#F3EAB7"
              />
              <path
                d="M49.9891 20.4976H53.3681C54.1985 20.4976 54.85 20.9766 54.7798 21.5387L53.2468 33.8604C53.1829 34.3586 52.5697 34.7419 51.8351 34.7419C51.1069 34.7419 50.5001 34.3714 50.4234 33.8796L48.5774 21.5579C48.4944 20.9894 49.1523 20.4976 49.9891 20.4976Z"
                fill="#F3EAB7"
              />
              <path
                d="M44.2855 16.9718H22.7529C21.6032 16.9718 20.677 15.9881 20.7792 14.8448C21.5713 6.47063 26.9688 0 33.5225 0C40.0634 0 45.4609 6.47063 46.2529 14.8448C46.3679 15.9881 45.4353 16.9718 44.2855 16.9718Z"
                fill="#2F66B0"
              />
              <path
                d="M73.4374 17.9616H51.9048C50.755 17.9616 49.8289 16.9779 49.9311 15.8345C50.7231 7.46038 56.1206 0.989746 62.6743 0.989746C69.2152 0.989746 74.6127 7.46038 75.4047 15.8345C75.5197 16.9843 74.5872 17.9616 73.4374 17.9616Z"
                fill="#2F66B0"
              />
              <path
                d="M48.0032 10.4946C13.9381 10.4946 -11.1523 33.9818 -11.1523 60.2732C-11.1523 86.5709 13.9381 107.886 48.0032 107.886C82.0682 107.886 105 86.5709 105 60.2732C105 33.9818 82.0682 10.4946 48.0032 10.4946ZM87.1974 56.8302H8.81524C7.55689 56.8302 6.54129 55.821 6.64988 54.6393C8.234 37.9677 25.5891 23.6147 48.7761 23.6147C71.963 23.6147 87.9192 37.9741 89.3628 54.6521C89.4586 55.8274 88.4494 56.8302 87.1974 56.8302Z"
                fill="#2F66B0"
              />
              <path
                d="M41.3208 15.6237H25.7223C24.892 15.6237 24.2149 14.9147 24.2979 14.0843C24.8728 8.02248 28.782 3.33398 33.528 3.33398C38.2676 3.33398 42.1768 8.02248 42.7517 14.0843C42.8219 14.9147 42.1512 15.6237 41.3208 15.6237Z"
                fill="#3F4040"
              />
              <path
                d="M70.359 15.6237H54.7605C53.9301 15.6237 53.253 14.9147 53.336 14.0843C53.9109 8.02248 57.8201 3.33398 62.5661 3.33398C67.3057 3.33398 71.2149 8.02248 71.7898 14.0843C71.86 14.9147 71.1893 15.6237 70.359 15.6237Z"
                fill="#3F4040"
              />
              <path
                d="M35.7124 14.1292H26.4121C26.4121 11.5614 28.4944 9.479 31.0623 9.479C33.6301 9.479 35.7124 11.5614 35.7124 14.1292Z"
                fill="white"
              />
              <path
                d="M66.2837 14.1292H56.9834C56.9834 11.5614 59.0657 9.479 61.6335 9.479C64.2014 9.479 66.2837 11.5614 66.2837 14.1292Z"
                fill="white"
              />
            </svg>